PathFileType	4	(X/Y/Z)	 s05c0202.trc
DataRate	CameraRate	NumFrames	NumMarkers	Units	OrigDataRate	OrigDataStartFrame	OrigNumFrames
200	200	4	49	mm	200	251	2000
Frame#	Time	racr			lacr			c7			jug			rlel			rdr			llel			ldr			s2			lic			ric			lasi			rasi			rpsi			lpsi			rgt			lgt			rth1			rth2			rth3			rth4			rlfc			rsh1			rsh2			rsh3			rsh4			rlmal			rmmal			rcal			rtoe			rmt5			lth1			lth2			lth4			lth3			llfc			lmfc			lsh1			lsh2			lsh3			lsh4			llmal			lmmal			lcal			ltoe			lmt5			SBIKE			LBIKE			RBIKE			
		X1	Y1	Z1	X2	Y2	Z2	X3	Y3	Z3	X4	Y4	Z4	X5	Y5	Z5	X6	Y6	Z6	X7	Y7	Z7	X8	Y8	Z8	X9	Y9	Z9	X10	Y10	Z10	X11	Y11	Z11	X12	Y12	Z12	X13	Y13	Z13	X14	Y14	Z14	X15	Y15	Z15	X16	Y16	Z16	X17	Y17	Z17	X18	Y18	Z18	X19	Y19	Z19	X20	Y20	Z20	X21	Y21	Z21	X22	Y22	Z22	X23	Y23	Z23	X24	Y24	Z24	X25	Y25	Z25	X26	Y26	Z26	X27	Y27	Z27	X28	Y28	Z28	X29	Y29	Z29	X30	Y30	Z30	X31	Y31	Z31	X32	Y32	Z32	X33	Y33	Z33	X34	Y34	Z34	X35	Y35	Z35	X36	Y36	Z36	X37	Y37	Z37	X38	Y38	Z38	X39	Y39	Z39	X40	Y40	Z40	X41	Y41	Z41	X42	Y42	Z42	X43	Y43	Z43	X44	Y44	Z44	X45	Y45	Z45	X46	Y46	Z46	X47	Y47	Z47	X48	Y48	Z48	X49	Y49	Z49	
251	1.2550	425.150150	1400.711435	-117.291054	440.025298	1406.779614	-408.433668	427.194126	1468.359709	-265.676081	401.537848	1310.621530	-264.826197	505.545133	1160.622568	-15.094377	684.229209	967.318839	-50.718685	476.851048	1149.315097	-528.360670	763.562799	1033.572018	-451.798115	-96.634897	1162.421913	-261.641429	54.115886	1170.614392	-402.596426	56.189882	1190.125643	-125.691912	101.489552	1119.603298	-367.720529	93.268779	1127.895146	-151.796671	-64.464483	1206.879341	-220.713906	-60.008394	1209.336266	-309.585440	8.974285	1065.678952	-87.396518	-19.929408	1068.923116	-431.718686	108.843935	1014.703299	-72.849975	197.526865	1003.717052	-67.851778	267.115204	949.462503	-68.061079	211.189747	1036.435993	-79.665525	405.944311	877.563671	-92.296697	337.727644	789.029417	-73.469533	321.874796	702.282126	-87.161834	268.130778	636.036624	-94.025619	350.276903	693.509610	-111.834238	216.528313	513.380345	-110.549746	231.610918	546.632037	-186.897150	145.203290	481.413904	-158.562029	438.993742	458.112077	-145.320372	336.341518	435.076010	-82.006224	54.101310	946.959905	-453.682953	121.333690	893.468550	-457.009315	151.439048	912.497000	-444.776177	152.486450	808.369811	-460.602222	219.259408	673.859075	-435.163434	211.353831	663.568065	-326.032154	129.928587	580.840177	-456.645532	99.295135	499.483383	-444.027841	30.221324	443.877255	-441.276090	126.001362	484.035893	-421.190175	-35.115859	339.166928	-430.314959	-2.358312	360.464695	-355.075079	-105.407794	310.785858	-386.835416	175.552822	225.226859	-396.454633	64.284442	224.932931	-458.501877	-167.924519	902.511395	-271.091585	-43.521058	84.951898	-474.979917	-51.876601	80.088141	-77.442522	
252	1.2600	425.105611	1400.677893	-117.287507	440.037253	1406.750093	-408.461844	427.186899	1468.330579	-265.674842	401.470807	1310.599336	-264.819405	505.499026	1160.587709	-15.147733	684.230366	967.325834	-50.679013	476.829515	1149.289036	-528.378243	763.717822	1033.582167	-451.835254	-96.701124	1162.462266	-261.687194	54.108328	1170.603775	-402.582058	56.189494	1190.130239	-125.714772	101.458186	1119.588714	-367.728075	93.236951	1127.917952	-151.819297	-64.491555	1206.819407	-220.684796	-60.056993	1209.345968	-309.579479	8.925522	1065.701251	-87.382709	-19.967552	1068.910743	-431.729918	108.822379	1014.736179	-72.850646	197.510176	1003.759095	-67.835028	267.102832	949.504364	-68.048603	211.155799	1036.506504	-79.661465	405.974978	877.661643	-92.282207	337.707858	789.135638	-73.461385	321.843757	702.392307	-87.146376	268.080345	636.192241	-94.032891	350.245267	693.673060	-111.806854	216.445665	513.513093	-110.546823	231.542449	546.758328	-186.916754	145.146787	481.537955	-158.566952	438.924974	458.199753	-145.305742	336.237786	435.210439	-81.994904	54.043646	946.945790	-453.662861	121.268990	893.439789	-457.014456	151.373509	912.462761	-444.781302	152.424495	808.345351	-460.583150	219.160014	673.845083	-435.154205	211.272792	663.530617	-326.034130	129.880809	580.758142	-456.630160	99.260618	499.397764	-444.026374	30.213838	443.787718	-441.262340	125.986924	483.999616	-421.192647	-35.083146	339.046392	-430.312400	-2.332251	360.325552	-355.056685	-105.363436	310.645096	-386.828352	175.614799	225.145312	-396.446917	64.371510	224.815541	-458.490870	-167.976408	902.502706	-271.052318	-43.529942	84.964848	-474.980107	-51.882611	80.100632	-77.429656	
253	1.2650	425.057583	1400.636428	-117.293753	440.013907	1406.711381	-408.464237	427.157896	1468.296697	-265.654853	401.434883	1310.582638	-264.811947	505.445280	1160.553800	-15.155263	684.241405	967.323107	-50.634177	476.797557	1149.266097	-528.406208	763.561479	1033.538532	-451.771302	-96.746126	1162.480630	-261.708734	54.095075	1170.590166	-402.586906	56.128623	1190.143444	-125.723974	101.432752	1119.586848	-367.739640	93.192544	1127.887671	-151.827700	-64.531528	1206.819021	-220.700860	-60.089045	1209.343571	-309.602691	8.878791	1065.687387	-87.434952	-20.004392	1068.914437	-431.742084	108.815794	1014.787424	-72.838550	197.476919	1003.811989	-67.829667	267.126721	949.604597	-68.022954	211.139028	1036.554896	-79.636703	405.939216	877.752016	-92.272939	337.677899	789.231676	-73.456865	321.800614	702.491917	-87.174558	268.025558	636.306004	-94.042315	350.189745	693.767023	-111.830754	216.368389	513.630013	-110.554504	231.445856	546.985343	-186.928585	145.069906	481.668599	-158.560128	438.854177	458.304276	-145.317291	336.168781	435.307596	-81.984607	53.981425	946.928742	-453.665822	121.190247	893.413675	-457.007974	151.318601	912.419065	-444.781914	152.344055	808.310497	-460.579251	219.077378	673.810320	-435.124509	211.178239	663.511611	-326.020654	129.815864	580.667751	-456.611287	99.222838	499.305893	-444.004754	30.214485	443.700903	-441.243754	125.947310	483.930569	-421.159585	-35.030789	338.890743	-430.327714	-2.375014	360.233913	-355.032850	-105.310724	310.493771	-386.814202	175.694627	225.061460	-396.437249	64.437066	224.688158	-458.491309	-167.923945	902.511281	-271.091503	-43.525454	84.970394	-474.961965	-51.878533	80.098626	-77.422843	
254	1.2700	425.045141	1400.595119	-117.261297	440.013298	1406.678640	-408.460917	427.142789	1468.264632	-265.658277	401.416950	1310.560955	-264.800744	505.406699	1160.540694	-15.133433	684.225818	967.329182	-50.593835	476.771264	1149.224767	-528.446366	763.656071	1033.572793	-451.839225	-96.730179	1162.416506	-261.669279	54.069774	1170.587125	-402.607075	56.114692	1190.144171	-125.751888	101.399347	1119.572177	-367.731843	93.150663	1127.904159	-151.846284	-64.557771	1206.819727	-220.715350	-60.117664	1209.365768	-309.615658	8.889313	1065.737910	-87.401632	-20.048657	1068.910880	-431.741828	108.766969	1014.825475	-72.824622	197.450714	1003.874200	-67.821168	267.123701	949.676282	-68.023476	211.135128	1036.621111	-79.639855	405.937710	877.879371	-92.264046	337.645680	789.347471	-73.461094	321.760924	702.654041	-87.147002	268.005989	636.420888	-94.043364	350.166112	693.874480	-111.816022	216.284121	513.783370	-110.548043	231.381099	547.148816	-186.932526	145.000515	481.840428	-158.579875	438.778397	458.426517	-145.289954	336.084687	435.408358	-81.987827	53.928426	946.906865	-453.674605	121.119965	893.386487	-457.006773	151.239369	912.404225	-444.788402	152.248113	808.281985	-460.572408	218.990524	673.766375	-435.113672	211.064780	663.474652	-326.016512	129.744797	580.606199	-456.607821	99.211896	499.229241	-444.012432	30.208362	443.592411	-441.250410	125.914087	483.820497	-421.136875	-35.013313	338.727507	-430.308891	-2.330784	360.103722	-355.031504	-105.246776	310.348970	-386.813829	175.768322	224.962242	-396.446278	64.520120	224.552876	-458.491976	-167.934086	902.512124	-271.062175	-43.524485	84.968198	-474.965346	-51.882174	80.067151	-77.429534	
